#!OML:ASF E:\emotionWalksFemale\Project 1\Capture day 1\Session 1\Female1.ASF
:FULLY-SPECIFIED
:DEGREES
1242
root 16.0836 15.584 2.36095 -334.112 -85.7795 -28.0676
lowerback 3.99613 0.782735 -5.55563
upperback -5.72087 0.293262 -2.50185
thorax -8.30708 0.343087 0.443889
lowerneck -12.2014 -3.03599 -6.76233
upperneck 24.4851 -5.0726 7.23921
head 10.1516 -2.35198 3.0441
rclavicle 2.38542e-015 9.54166e-015
rhumerus 30.1415 11.8161 -41.1536
rradius 27.0554
rwrist 22.1014
rhand -5.32232 -38.9109
rfingers 7.12502
rthumb 20.4837 -427.85
lclavicle 2.38542e-015 9.54166e-015
lhumerus 27.8356 -11.3294 52.4475
lradius 27.8214
lwrist -35.5554
lhand -13.0204 -47.8441
lfingers 7.12502
lthumb 13.0735 -18.2738
rfemur -24.3667 32.6612 7.34126
rtibia 17.4867
rfoot -42.0733 -46.8156
rtoes 16.8329
lfemur 13.3595 -20.7845 -28.9057
ltibia 18.9564
lfoot -25.657 26.8956
ltoes -8.39764
1243
root 15.993 15.5719 2.33968 -336.767 -85.6857 -25.347
lowerback 3.9426 0.765595 -5.4658
upperback -5.70779 0.282704 -2.50771
thorax -8.2589 0.331419 0.38992
lowerneck -12.2167 -3.0375 -7.00539
upperneck 24.4545 -5.1313 7.66947
head 10.1663 -2.35447 3.23205
rclavicle -9.93923e-015 -1.59028e-014
rhumerus 29.9707 12.1903 -40.6046
rradius 27.3109
rwrist 21.2432
rhand -4.82776 -39.2773
rfingers 7.12502
rthumb 20.9589 -428.165
lclavicle -9.93923e-015 -1.59028e-014
lhumerus 27.9856 -15.0388 48.9838
lradius 29.1495
lwrist -30.685
lhand -12.9631 -46.3753
lfingers 7.12502
lthumb 13.1287 -16.8086
rfemur -24.0893 32.3857 7.55657
rtibia 16.9539
rfoot -41.5232 -47.1338
rtoes 16.3256
lfemur 13.4332 -20.389 -28.8561
ltibia 19.1812
lfoot -24.6458 27.0296
ltoes -13.1409
1244
root 15.9038 15.5686 2.31991 -340.378 -85.5519 -21.6121
lowerback 3.92597 0.711142 -5.57502
upperback -5.71238 0.207221 -2.44832
thorax -8.2524 0.303626 0.5219
lowerneck -12.4496 -3.00908 -6.81084
upperneck 24.5858 -5.0745 7.4646
head 10.2436 -2.32606 3.13272
rclavicle -1.98785e-015 4.77083e-015
rhumerus 29.8063 12.2505 -40.3942
rradius 27.4506
rwrist 20.9982
rhand -4.87354 -38.9975
rfingers 7.12502
rthumb 20.9149 -427.89
lclavicle -1.98785e-015 4.77083e-015
lhumerus 27.9256 -15.316 48.7306
lradius 29.3012
lwrist -30.2779
lhand -13.222 -46.1043
lfingers 7.12502
lthumb 12.8792 -16.5217
rfemur -23.8253 31.6117 7.7834
rtibia 16.4434
rfoot -40.6568 -47.0612
rtoes 15.8228
lfemur 13.42 -20.0241 -28.7788
ltibia 19.4125
lfoot -24.5586 26.1657
ltoes -11.8779
1245
root 15.8128 15.5636 2.29761 -344.38 -85.4636 -17.4586
lowerback 3.87115 0.685023 -5.66796
upperback -5.75173 0.169849 -2.40014
thorax -8.26282 0.293248 0.628542
lowerneck -12.5528 -3.03317 -6.78238
upperneck 24.6897 -5.06468 7.27281
head 10.295 -2.33708 3.06096
rclavicle -4.57205e-015 2.22639e-014
rhumerus 29.7596 11.4237 -41.3341
rradius 27.0237
rwrist 22.337
rhand -4.74058 -39.2481
rfingers 7.12502
rthumb 21.0426 -428.126
lclavicle -4.57205e-015 2.22639e-014
lhumerus 27.7904 -13.8007 50.3075
lradius 28.7359
lwrist -32.2874
lhand -13.2597 -46.4962
lfingers 7.12502
lthumb 12.8429 -16.9113
rfemur -23.4924 29.8749 8.3176
rtibia 16.0694
rfoot -37.3377 -47.2034
rtoes 11.668
lfemur 13.5063 -19.829 -28.8409
ltibia 19.5521
lfoot -24.9331 25.0759
ltoes -7.81846
1246
root 15.7159 15.5484 2.27009 -347.978 -85.439 -13.7695
lowerback 3.76648 0.651723 -5.79758
upperback -5.77708 0.12695 -2.32783
thorax -8.2288 0.28237 0.782383
lowerneck -12.5437 -3.01023 -6.77953
upperneck 24.7106 -5.01074 7.18237
head 10.2939 -2.322 3.03545
rclavicle -2.38542e-015 -4.77083e-015
rhumerus 29.4465 11.7433 -40.739
rradius 27.4661
rwrist 21.7143
rhand -4.41003 -39.6188
rfingers 7.12502
rthumb 21.3602 -428.461
lclavicle -2.38542e-015 -4.77083e-015
lhumerus 27.6642 -11.7958 52.2799
lradius 27.9499
lwrist -34.938
lhand -13.1037 -47.1244
lfingers 7.12502
lthumb 12.9933 -17.5491
rfemur -23.2196 29.0337 8.64684
rtibia 15.8105
rfoot -35.979 -47.092
rtoes 10.7516
lfemur 13.6446 -19.3914 -28.8935
ltibia 19.6675
lfoot -24.2156 24.9164
ltoes -10.1764
1247
root 15.6193 15.5402 2.24302 -350.628 -85.2165 -11.0508
lowerback 3.73476 0.531402 -5.85388
upperback -5.81451 -0.0302642 -2.22726
thorax -8.24224 0.213693 0.936761
lowerneck -12.3991 -2.89594 -6.43317
upperneck 24.6306 -4.82974 6.80225
head 10.203 -2.25095 2.86328
rclavicle -3.57812e-015 2.70347e-014
rhumerus 30.2188 11.7822 -40.8935
rradius 26.7154
rwrist 21.8319
rhand -4.42593 -39.0589
rfingers 7.12502
rthumb 21.3449 -427.903
lclavicle -3.57812e-015 2.70347e-014
lhumerus 27.4686 -9.71201 54.1435
lradius 27.2003
lwrist -37.6289
lhand -13.2212 -48.0514
lfingers 7.12502
lthumb 12.88 -18.4689
rfemur -22.9391 27.639 9.18436
rtibia 15.6863
rfoot -34.3794 -46.6319
rtoes 9.65331
lfemur 13.7318 -18.7541 -28.6822
ltibia 19.7327
lfoot -22.6943 24.8515
ltoes -15.9345
1248
root 15.5248 15.53 2.21369 -353.514 -84.967 -8.07544
lowerback 3.75988 0.435491 -5.8818
upperback -5.85243 -0.163877 -2.202
thorax -8.29043 0.15237 0.992911
lowerneck -12.3237 -2.83206 -6.13169
upperneck 24.5577 -4.72817 6.50698
head 10.1392 -2.20939 2.71895
rclavicle 1.47101e-014 -1.90833e-014
rhumerus 29.5854 11.8436 -40.8943
rradius 27.2033
rwrist 21.8186
rhand -4.80508 -38.4702
rfingers 7.12502
rthumb 20.9807 -427.355
lclavicle 1.47101e-014 -1.90833e-014
lhumerus 27.3633 -7.8992 55.7109
lradius 26.6565
lwrist -39.9198
lhand -13.4919 -48.9024
lfingers 7.12502
lthumb 12.619 -19.3036
rfemur -23.0864 29.7731 8.53501
rtibia 15.7111
rfoot -38.5625 -47.0813
rtoes 15.5492
lfemur 13.8519 -18.2804 -28.5385
ltibia 19.746
lfoot -21.0306 24.7382
ltoes -22.3077
1249
root 15.4256 15.5164 2.18363 -357.538 -84.8874 -3.93992
lowerback 3.69763 0.456039 -6.01047
upperback -5.87235 -0.146012 -2.22484
thorax -8.27862 0.167424 1.03852
lowerneck -12.38 -2.87081 -6.04544
upperneck 24.5839 -4.76661 6.37754
head 10.1573 -2.23157 2.65294
rclavicle -4.77083e-015 0
rhumerus 29.1737 12.2811 -40.0241
rradius 27.7665
rwrist 20.798
rhand -5.01948 -38.9381
rfingers 7.12502
rthumb 20.7747 -427.846
lclavicle -4.77083e-015 0
lhumerus 27.285 -8.5146 55.2144
lradius 26.969
lwrist -39.1182
lhand -13.3838 -48.9313
lfingers 7.12502
lthumb 12.7232 -19.3389
rfemur -23.0166 30.148 8.36835
rtibia 15.7461
rfoot -39.6008 -46.8833
rtoes 17.5213
lfemur 14.0103 -17.8792 -28.6173
ltibia 19.778
lfoot -19.9332 24.4216
ltoes -25.9167
1250
root 15.3232 15.5052 2.15762 -360.943 -84.7717 -0.414146
lowerback 3.54524 0.473492 -6.06443
upperback -5.89777 -0.114192 -2.19294
thorax -8.21942 0.186073 1.09932
lowerneck -12.3019 -2.89365 -6.17628
upperneck 24.5574 -4.78335 6.42148
head 10.1382 -2.24791 2.68929
rclavicle -1.5704e-014 2.94201e-014
rhumerus 29.4475 11.6252 -40.8269
rradius 27.1598
rwrist 21.6828
rhand -5.06526 -39.4262
rfingers 7.12502
rthumb 20.7307 -428.339
lclavicle -1.5704e-014 2.94201e-014
lhumerus 27.2378 -13.0994 51.1324
lradius 28.5898
lwrist -33.073
lhand -13.1004 -47.4466
lfingers 7.12502
lthumb 12.9964 -17.8714
rfemur -22.8012 29.7394 8.54902
rtibia 15.7662
rfoot -38.2357 -47.3826
rtoes 15.2215
lfemur 14.1433 -17.5113 -28.6632
ltibia 19.8772
lfoot -19.6781 23.7023
ltoes -25.0456
1251
root 15.2209 15.4993 2.13022 -363.298 -84.5259 2.08429
lowerback 3.39671 0.38576 -6.09853
upperback -5.93047 -0.217703 -2.1069
thorax -8.16077 0.139707 1.22037
lowerneck -12.2684 -2.8339 -6.31704
upperneck 24.5581 -4.69589 6.52519
head 10.1313 -2.20981 2.76201
rclavicle 1.15295e-014 -5.56597e-015
rhumerus 29.636 11.6162 -41.0632
rradius 26.9979
rwrist 21.7321
rhand -5.14152 -39.3203
rfingers 7.12502
rthumb 20.6574 -428.241
lclavicle 1.15295e-014 -5.56597e-015
lhumerus 27.1722 -13.0502 51.193
lradius 28.5024
lwrist -32.8326
lhand -13.0036 -47.3668
lfingers 7.12502
lthumb 13.0897 -17.7976
rfemur -22.638 29.1353 8.83355
rtibia 15.9193
rfoot -37.4123 -47.5404
rtoes 13.9657
lfemur 14.326 -17.4096 -28.6618
ltibia 19.8397
lfoot -19.7074 22.9062
ltoes -22.2614
1252
root 15.116 15.4959 2.09915 -365.086 -84.2631 3.98318
lowerback 3.30698 0.278326 -6.05311
upperback -5.96887 -0.348497 -2.04161
thorax -8.1399 0.0752504 1.27745
lowerneck -12.3018 -2.76178 -6.2731
upperneck 24.617 -4.59524 6.48158
head 10.1491 -2.16379 2.75234
rclavicle -3.37934e-015 5.56597e-015
rhumerus 29.2241 12.6359 -39.7265
rradius 27.8409
rwrist 19.9786
rhand -5.33247 -39.1006
rfingers 7.12502
rthumb 20.4739 -428.041
lclavicle -3.37934e-015 5.56597e-015
lhumerus 26.7846 -12.26 51.8691
lradius 28.5094
lwrist -33.595
lhand -12.9268 -47.5468
lfingers 7.12502
lthumb 13.1637 -17.9824
rfemur -22.4623 29.985 8.65922
rtibia 15.8468
rfoot -40.7406 -46.7681
rtoes 19.7644
lfemur 14.4505 -17.2029 -28.5616
ltibia 19.9919
lfoot -19.5426 22.0708
ltoes -20.7177
1253
root 15.0047 15.5057 2.06899 -367.615 -84.0864 6.60503
lowerback 3.16388 0.231896 -6.02944
upperback -6.00351 -0.397177 -2.00041
thorax -8.08961 0.0502975 1.31259
lowerneck -12.3423 -2.72697 -6.25788
upperneck 24.7043 -4.54437 6.44172
head 10.1834 -2.14325 2.74282
rclavicle 2.16675e-014 -1.19271e-014
rhumerus 29.7029 12.1034 -40.5586
rradius 27.0526
rwrist 20.9861
rhand -5.5259 -39.4269
rfingers 7.12502
rthumb 20.2881 -428.387
lclavicle 2.16675e-014 -1.19271e-014
lhumerus 26.7007 -12.7581 51.3595
lradius 28.7588
lwrist -32.8958
lhand -12.9423 -47.1362
lfingers 7.12502
lthumb 13.1488 -17.5708
rfemur -22.5255 32.5655 7.64831
rtibia 15.854
rfoot -48.3161 -44.1764
rtoes 31.0494
lfemur 14.6247 -16.799 -28.5187
ltibia 20.1359
lfoot -19.555 21.0369
ltoes -17.3028
1254
root 14.8958 15.4785 2.03699 -370.915 -83.8808 10.027
lowerback 3.0226 0.254661 -6.17151
upperback -6.03818 -0.371791 -2.0255
thorax -8.04797 0.0687736 1.36246
lowerneck -12.4632 -2.75898 -6.1783
upperneck 24.8649 -4.60299 6.39416
head 10.2665 -2.16693 2.70562
rclavicle -1.23246e-014 -2.94201e-014
rhumerus 29.6858 11.7768 -40.8276
rradius 26.765
rwrist 21.4137
rhand -5.50991 -39.6188
rfingers 7.12502
rthumb 20.3034 -428.578
lclavicle -1.23246e-014 -2.94201e-014
lhumerus 26.8833 -13.1991 51.0666
lradius 28.7091
lwrist -32.5516
lhand -13.002 -46.6875
lfingers 7.12502
lthumb 13.0913 -17.1183
rfemur -21.7448 28.5849 9.25392
rtibia 15.9989
rfoot -38.8753 -46.6068
rtoes 17.0606
lfemur 14.794 -16.4698 -28.6074
ltibia 20.26
lfoot -19.4777 20.1555
ltoes -14.2768
1255
root 14.7862 15.4627 2.00002 -373.281 -83.5788 12.4802
lowerback 2.91095 0.270605 -6.24103
upperback -6.04044 -0.348358 -2.04428
thorax -7.98748 0.0818681 1.37913
lowerneck -12.4623 -2.83165 -6.17449
upperneck 24.8844 -4.6971 6.34861
head 10.2795 -2.21484 2.6767
rclavicle 1.2921e-014 0
rhumerus 29.5199 11.2452 -41.2369
rradius 26.5342
rwrist 21.9877
rhand -5.60499 -39.323
rfingers 7.12502
rthumb 20.212 -428.291
lclavicle 1.2921e-014 0
lhumerus 27.0518 -13.4326 50.9569
lradius 28.6325
lwrist -32.4571
lhand -12.9096 -46.8201
lfingers 7.12502
lthumb 13.1803 -17.2568
rfemur -21.3817 28.4513 9.38507
rtibia 16.1202
rfoot -39.9883 -45.8438
rtoes 19.3018
lfemur 14.8958 -16.0964 -28.5874
ltibia 20.4429
lfoot -18.2283 19.9278
ltoes -18.3268
